# xmcd CD database file
#
# Track frame offsets:
#	150
#	16282
#	34023
#	46904
#	62687
#
# Disc length: 1099 seconds
#
# Revision: 0
# Processed by: cddbd v1.5.2PL0 Copyright (c) Steve Scherf et al.
# Submitted via: CDex 1.72
#
DISCID=35044905
DTITLE=Michael Thomas - Bonafide Counrty Boy
DYEAR=1900
DGENRE=Country
TTITLE0=Bonafide Country Boys
TTITLE1=Speed Of Life
TTITLE2=Nobody Else But You
TTITLE3=Cowboy Way
TTITLE4=Drowning In Her Memories
EXTD=
EXTT0=
EXTT1=
EXTT2=
EXTT3=
EXTT4=
PLAYORDER=
